<?xml version="1.0" standalone="no"?>
<!DOCTYPE svg PUBLIC "-//W3C//DTD SVG 20010904//EN"
 "http://www.w3.org/TR/2001/REC-SVG-20010904/DTD/svg10.dtd">
<svg version="1.0" xmlns="http://www.w3.org/2000/svg"
 width="626.000000pt" height="383.000000pt" viewBox="0 0 626.000000 383.000000"
 preserveAspectRatio="xMidYMid meet">
<metadata>
Created by potrace 1.16, written by Peter Selinger 2001-2019
</metadata>
<g transform="translate(0.000000,383.000000) scale(0.100000,-0.100000)"
fill="#000000" stroke="none">
<path d="M0 3820 c0 -6 58 -10 153 -11 83 -1 166 -5 182 -9 17 -4 -47 -8 -152
-9 l-183 -1 0 -145 0 -145 256 0 c167 0 253 -3 249 -10 -4 -6 -100 -10 -256
-10 l-249 0 0 -1126 0 -1127 38 43 37 42 2880 2 c1584 0 2976 2 3093 4 l212 3
0 984 c0 952 -1 985 -19 985 -21 0 -221 97 -221 108 0 4 54 6 120 4 l120 -3 0
28 0 28 -173 -3 -174 -4 -89 46 -89 45 146 0 c142 1 148 0 212 -29 46 -21 82
-30 117 -30 l50 0 0 155 0 155 -672 2 c-370 2 -1679 4 -2908 5 -1229 2 -2239
4 -2245 5 -21 5 1266 13 2584 16 756 1 1377 5 1380 7 2 3 -986 5 -2197 5
-1461 0 -2202 -3 -2202 -10z m4086 -74 c7 -11 12 -21 10 -23 -2 -2 -435 -1
-962 3 -945 7 -957 7 -934 26 23 19 50 19 948 16 898 -3 924 -4 938 -22z
m1539 -25 l80 -40 -128 0 c-127 -1 -128 -1 -197 34 -39 19 -70 37 -70 40 0 3
53 5 118 5 117 0 119 0 197 -39z m-1461 -62 c11 -10 18 -20 15 -21 -2 -2 -471
-2 -1043 0 l-1038 3 23 26 24 25 1000 -7 c958 -7 1001 -8 1019 -26z m1707 -49
l84 -39 -145 0 -145 0 -75 39 -75 39 136 1 136 0 84 -40z m-1627 -42 c9 -12
16 -25 16 -28 0 -6 -2242 -1 -2249 5 -2 3 4 14 14 25 18 20 30 20 1111 20
l1093 0 15 -22z m-471 -85 l557 -6 26 -34 26 -34 -454 6 c-249 3 -803 8 -1230
11 l-778 6 23 29 22 28 626 0 c344 1 876 -2 1182 -6z m-8 -138 l680 -6 33 -36
c18 -20 31 -38 28 -40 -2 -3 -391 0 -863 6 -472 6 -1085 11 -1361 11 l-504 0
32 41 33 40 621 -5 c341 -3 927 -8 1301 -11z m-155 -161 l975 -5 42 -47 c23
-26 40 -48 38 -50 -1 -2 -355 2 -786 7 -431 6 -1092 11 -1469 12 -377 1 -706
4 -732 6 l-48 5 38 45 37 44 465 -5 c256 -3 904 -9 1440 -12z m740 -200 l415
-7 47 -51 c26 -28 47 -55 48 -60 0 -5 -104 -6 -252 -3 -139 4 -656 9 -1148 12
-492 3 -1050 7 -1240 10 -190 3 -446 5 -569 5 l-224 0 54 56 54 56 1200 -6
c660 -3 1387 -9 1615 -12z m-435 -240 l1060 -6 68 -71 c37 -39 67 -75 67 -79
0 -5 -80 -7 -177 -4 -98 3 -862 8 -1698 11 -836 3 -1583 8 -1660 10 -77 2
-193 4 -257 5 -65 0 -118 3 -118 8 0 4 28 38 63 76 l62 69 765 -6 c421 -4
1242 -10 1825 -13z m530 -329 l830 -5 78 -82 c43 -46 83 -92 89 -102 10 -19
-15 -19 -1553 -13 -860 4 -1894 7 -2297 7 l-733 0 92 105 92 105 1286 -5 c707
-3 1660 -7 2116 -10z m1147 -453 l98 -3 92 -106 c51 -58 108 -121 126 -139 17
-18 32 -36 32 -39 0 -7 -4527 -6 -5072 1 l-466 7 47 56 c25 31 80 96 121 144
l75 89 2425 -4 c1334 -1 2469 -4 2522 -6z"/>
<path d="M4650 3820 c428 -11 1610 -11 1610 0 0 7 -299 9 -922 8 -528 -1 -822
-5 -688 -8z"/>
<path d="M4 861 c-2 -2 -4 -145 -4 -317 l0 -313 968 -2 c532 0 1035 -3 1117
-5 205 -4 2343 -8 3353 -6 l822 2 0 325 0 326 -732 -6 c-718 -6 -4037 -8
-5021 -3 -274 2 -501 1 -503 -1z"/>
</g>
</svg>
