<?xml version="1.0" encoding="UTF-8" standalone="no"?>
<!-- Created with Inkscape (http://www.inkscape.org/) -->

<svg
   xmlns:dc="http://purl.org/dc/elements/1.1/"
   xmlns:cc="http://creativecommons.org/ns#"
   xmlns:rdf="http://www.w3.org/1999/02/22-rdf-syntax-ns#"
   xmlns:svg="http://www.w3.org/2000/svg"
   xmlns="http://www.w3.org/2000/svg"
   xmlns:sodipodi="http://sodipodi.sourceforge.net/DTD/sodipodi-0.dtd"
   xmlns:inkscape="http://www.inkscape.org/namespaces/inkscape"
   width="121.52398mm"
   height="179.97696mm"
   viewBox="0 0 430.59678 637.71363"
   id="svg2"
   version="1.1"
   inkscape:version="0.91 r13725"
   sodipodi:docname="cartoon monster 11-2.svg">
  <title
     id="title3349">Cartoon monster 11</title>
  <defs
     id="defs4" />
  <sodipodi:namedview
     id="base"
     pagecolor="#ffffff"
     bordercolor="#666666"
     borderopacity="1.0"
     inkscape:pageopacity="0.0"
     inkscape:pageshadow="2"
     inkscape:zoom="0.49497475"
     inkscape:cx="-105.65254"
     inkscape:cy="349.64022"
     inkscape:document-units="px"
     inkscape:current-layer="layer2"
     showgrid="false"
     fit-margin-top="0"
     fit-margin-left="0"
     fit-margin-right="0"
     fit-margin-bottom="0"
     inkscape:window-width="1366"
     inkscape:window-height="744"
     inkscape:window-x="0"
     inkscape:window-y="24"
     inkscape:window-maximized="1" />
  <metadata
     id="metadata7">
    <rdf:RDF>
      <cc:Work
         rdf:about="">
        <dc:format>image/svg+xml</dc:format>
        <dc:type
           rdf:resource="http://purl.org/dc/dcmitype/StillImage" />
        <dc:title>Cartoon monster 11</dc:title>
        <dc:date>2019</dc:date>
        <dc:creator>
          <cc:Agent>
            <dc:title>Doodleguy</dc:title>
          </cc:Agent>
        </dc:creator>
        <dc:rights>
          <cc:Agent>
            <dc:title>Public domain</dc:title>
          </cc:Agent>
        </dc:rights>
        <cc:license
           rdf:resource="http://creativecommons.org/publicdomain/zero/1.0/" />
      </cc:Work>
      <cc:License
         rdf:about="http://creativecommons.org/publicdomain/zero/1.0/">
        <cc:permits
           rdf:resource="http://creativecommons.org/ns#Reproduction" />
        <cc:permits
           rdf:resource="http://creativecommons.org/ns#Distribution" />
        <cc:permits
           rdf:resource="http://creativecommons.org/ns#DerivativeWorks" />
      </cc:License>
    </rdf:RDF>
  </metadata>
  <g
     inkscape:groupmode="layer"
     id="layer2"
     inkscape:label="under">
    <path
       style="color:#000000;clip-rule:nonzero;display:inline;overflow:visible;visibility:visible;opacity:1;isolation:auto;mix-blend-mode:normal;color-interpolation:sRGB;color-interpolation-filters:linearRGB;solid-color:#000000;solid-opacity:1;fill:#d40000;fill-opacity:1;fill-rule:evenodd;stroke:none;stroke-width:2.20000005;stroke-linecap:round;stroke-linejoin:round;stroke-miterlimit:4;stroke-dasharray:none;stroke-dashoffset:0;stroke-opacity:1;color-rendering:auto;image-rendering:auto;shape-rendering:auto;text-rendering:auto;enable-background:accumulate"
       d="m 316.09864,187.41825 c -3.52796,0.41732 -3.21499,5.12264 -4.20755,7.63784 -5.67736,18.64428 -16.25519,35.38148 -27.68066,51.01907 -8.43083,10.84895 -17.25941,21.87725 -28.76829,29.58939 -10.66568,6.63601 -23.9516,7.78197 -36.04094,5.42858 -11.30271,-2.6049 -20.46705,-10.08263 -29.11094,-17.43204 -3.42175,-2.86237 -8.01958,-4.40932 -12.4089,-3.00777 -13.42998,2.77207 -26.87751,6.69687 -40.73566,5.62152 -12.82393,-0.95516 -25.30695,-4.81459 -37.459415,-8.90254 -5.454284,-1.80428 -10.587459,-4.64095 -16.086483,-6.23059 -0.467509,2.46665 1.37596,5.10182 2.051501,7.49917 5.469119,12.91686 15.212837,23.49699 21.175107,36.14159 2.5936,6.33291 -1.10186,12.9373 -2.24958,19.1841 -5.695883,20.91364 -9.082031,42.83741 -6.003999,64.47595 4.802929,30.81968 17.818669,61.31696 41.023359,82.76751 16.19575,15.91759 37.98385,23.68017 57.18509,35.03276 3.67978,1.80659 5.56121,5.52968 6.37363,9.37252 2.79045,10.227 4.84948,20.68491 5.44634,31.28218 -8.18938,9.66194 -21.15491,13.29237 -29.92183,22.33779 -11.37583,11.40229 -16.70986,27.11436 -21.92302,41.97772 -2.86172,8.29344 -4.37492,17.96714 -0.42956,26.15726 1.13133,2.49654 4.5663,3.10469 6.41111,1.00029 5.90403,-4.73765 5.80987,-13.10936 8.25978,-19.69304 2.34094,-7.50814 6.46395,-14.84077 12.69497,-19.78183 1.28518,-1.23053 3.50335,-0.23999 2.86868,1.64545 -1.62528,7.78444 -8.22229,14.20159 -7.30092,22.57947 -0.0394,4.1588 2.58809,9.38468 7.22496,9.44256 3.88197,-1.90248 5.08829,-6.70676 7.57523,-9.9645 5.57616,-8.81491 12.59738,-17.67231 22.61195,-21.50511 1.56161,-0.56963 4.97189,-0.14505 3.66871,2.28272 -4.04759,7.22562 -13.26264,10.34823 -16.0125,18.57832 -0.82106,2.00024 -0.35987,5.40891 1.8753,6.17041 28.59728,-12.89706 56.15271,-28.09263 85.01076,-40.42129 13.60891,-5.79012 28.08006,-9.09383 42.64662,-11.35357 3.61636,-0.59688 8.36077,-2.4095 8.24365,-6.83076 -0.0614,-7.90112 -3.82889,-15.20235 -6.41617,-22.50822 -4.59666,-11.58847 -11.62589,-23.66792 -8.83279,-36.55118 2.77493,-14.27182 16.02024,-23.91361 18.19773,-38.3995 3.35796,-16.14187 1.80769,-33.28421 8.0179,-48.78238 6.04617,-13.12669 14.5526,-25.05083 19.91795,-38.5387 8.53059,-19.39171 10.74449,-42.53774 1.83584,-62.20133 -1.94116,-3.39414 -3.1225,-8.22628 -7.06417,-9.82926 -3.581,-0.52051 -4.11599,4.33434 -4.89292,6.74948 -4.54698,24.36386 -16.53142,46.60427 -30.64787,66.71939 -6.72132,9.85956 -16.3238,17.20736 -26.53656,23.16191 -13.94223,8.14462 -27.58945,16.98866 -42.432,23.4373 -11.05951,4.46716 -23.23542,3.84406 -34.79305,6.11122 -3.00006,0.0817 -6.52313,1.6075 -9.264,0.0128 -0.91394,-2.0484 1.86192,-3.25517 3.49903,-3.3846 3.98673,-2.63485 6.62233,-7.42816 7.24469,-12.11788 -0.81137,-2.3129 -4.32144,-1.69122 -6.14082,-2.71281 -8.92246,-2.58995 -18.49252,-4.02324 -26.63686,-8.51922 -1.78878,-0.71524 -1.20606,-2.76005 0.39952,-3.10346 3.52238,-1.6304 9.2685,-1.5643 10.44088,-6.1201 0.53319,-4.82076 -4.19112,-8.09706 -6.89904,-11.42773 -2.23034,-2.66384 -5.48401,-4.96038 -6.84062,-8.15581 2.10899,-2.21056 5.98338,-0.27036 8.27063,-2.51749 2.7366,-2.45872 0.90982,-6.87375 -1.06046,-9.25809 -3.7299,-5.21887 -10.48733,-6.41063 -15.0714,-10.51683 -1.33826,-1.04461 -0.79134,-3.4082 1.06244,-3.26031 3.9147,0.24201 8.02254,0.98181 11.71145,-0.91447 6.11052,-2.58822 11.19815,-8.27373 18.31296,-7.77738 11.07242,-0.37369 22.48356,3.0442 33.33504,-0.292 6.60754,-2.85758 13.04136,-7.46459 16.29068,-14.05039 2.07825,-5.19435 2.37551,-11.07692 4.95507,-16.03025 1.37913,0.0354 2.10669,2.33513 2.84895,3.4142 3.47928,5.88059 1.03581,13.1698 -3.35402,17.85326 -7.65833,9.30624 -19.17116,15.3175 -31.27527,15.69485 -9.70599,1.02602 -19.56688,-2.61775 -29.14054,-0.0622 -1.55443,0.204 -3.89711,2.03531 -1.99662,3.45957 2.3961,1.90476 5.6562,2.45431 8.32487,3.59966 -2.89516,1.72929 -6.96722,1.44376 -9.38435,3.85515 -0.61674,3.02766 3.61132,4.1616 5.94155,3.8226 2.97713,-1.74303 5.83766,1.27736 8.57134,2.22791 3.38716,1.27136 7.31878,0.0599 10.93012,0.17995 6.23447,-0.68095 13.79267,-1.07084 17.99947,-6.3952 0.55635,-1.50089 2.06934,-2.87931 3.53455,-1.54186 1.62231,1.43293 4.18112,2.96966 4.37502,5.35164 -1.36555,2.83389 -5.48296,2.86816 -8.11721,3.88189 -12.04551,3.11202 -24.53315,4.49394 -36.44295,8.1038 -2.18827,1.05431 0.86793,2.84341 1.66025,3.79695 2.22544,2.00191 0.84137,6.80635 4.58218,7.22003 7.16187,-0.0226 13.82123,-3.41615 20.56815,-5.45226 7.70348,-2.43573 15.35755,-6.04168 23.45043,-6.58967 2.15995,-0.10909 4.72347,3.12921 2.16927,4.57035 -4.09853,1.79708 -8.83878,1.62102 -12.99783,3.39116 -10.38017,3.63311 -20.97991,7.66461 -29.70874,14.50945 -3.88721,2.41598 -3.02597,8.76451 1.21337,10.2643 5.64279,2.12126 13.16003,2.76276 17.60119,-2.14982 7.01658,-7.63943 13.24636,-16.68819 23.09197,-20.94756 4.63583,-1.87484 9.96789,-3.36579 14.90962,-2.00452 1.89952,1.17199 0.0241,3.6477 -1.73916,3.5533 -9.16894,1.71234 -16.70048,7.98084 -23.33512,14.18159 -3.85662,3.38391 -6.27705,8.25945 -5.89617,13.45259 -0.0503,3.05431 0.58297,8.32173 4.66998,8.11969 8.99115,-1.71349 16.90116,-6.8357 24.737,-11.3222 7.01314,-4.73782 14.4743,-8.66888 21.99538,-12.50714 20.81643,-11.70779 34.4669,-32.54368 43.81728,-53.94738 12.77186,-29.71438 18.97784,-62.97083 13.87388,-95.15074 -2.438,-13.70859 -9.7635,-25.87413 -16.77823,-37.67204 -4.1861,-6.85795 -9.73486,-13.10596 -17.2149,-16.41008 -3.02671,-1.37493 -6.0771,-3.41195 -9.45429,-3.67513 z"
       id="path3373"
       inkscape:connector-curvature="0" />
    <path
       style="color:#000000;clip-rule:nonzero;display:inline;overflow:visible;visibility:visible;opacity:1;isolation:auto;mix-blend-mode:normal;color-interpolation:sRGB;color-interpolation-filters:linearRGB;solid-color:#000000;solid-opacity:1;fill:#d40000;fill-opacity:1;fill-rule:evenodd;stroke:none;stroke-width:2.20000005;stroke-linecap:round;stroke-linejoin:round;stroke-miterlimit:4;stroke-dasharray:none;stroke-dashoffset:0;stroke-opacity:1;color-rendering:auto;image-rendering:auto;shape-rendering:auto;text-rendering:auto;enable-background:accumulate"
       d="m 244.44406,412.12154 c -1.51443,0.11808 -2.91226,0.80921 -4.25203,1.47681 -0.81471,0.47189 -1.75514,0.94351 -2.18449,1.82801 -0.24983,0.55183 0.2216,1.10851 0.7443,1.25221 1.38546,0.44381 2.97121,0.32344 4.21534,-0.46142 1.09963,-0.68353 2.18611,-1.60441 2.61182,-2.86757 0.20274,-0.50523 -0.0957,-1.13781 -0.66452,-1.19326 -0.15458,-0.0314 -0.31304,-0.0391 -0.47042,-0.0348 z"
       id="path3375"
       inkscape:connector-curvature="0" />
    <path
       style="color:#000000;clip-rule:nonzero;display:inline;overflow:visible;visibility:visible;opacity:1;isolation:auto;mix-blend-mode:normal;color-interpolation:sRGB;color-interpolation-filters:linearRGB;solid-color:#000000;solid-opacity:1;fill:#d40000;fill-opacity:1;fill-rule:evenodd;stroke:none;stroke-width:2.20000005;stroke-linecap:round;stroke-linejoin:round;stroke-miterlimit:4;stroke-dasharray:none;stroke-dashoffset:0;stroke-opacity:1;color-rendering:auto;image-rendering:auto;shape-rendering:auto;text-rendering:auto;enable-background:accumulate"
       d="m 413.43025,251.08213 c -4.3988,0.26339 -8.24473,2.83234 -11.80271,5.20761 -5.69676,4.32395 -10.15925,10.16741 -16.24135,13.97246 -3.52389,2.21433 -7.81011,1.36743 -11.65276,0.82223 -1.72228,-0.35004 -3.60672,0.63168 -3.91878,2.444 -0.6212,3.67192 -0.29403,7.45686 0.0143,11.14916 1.603,8.49867 5.18794,16.4521 8.99387,24.16174 4.74829,10.07006 6.49515,21.1994 7.1089,32.2242 0.45746,3.78798 0.32549,7.79922 1.82793,11.36728 1.02708,1.8148 3.35418,0.81586 4.6981,-0.0227 4.5398,-3.14698 6.94596,-8.5231 8.36138,-13.70167 2.1315,-7.0918 3.19585,-14.4622 5.13668,-21.5795 2.5779,-7.60247 7.11741,-14.32026 12.00668,-20.60696 2.63996,-3.47239 4.87347,-7.54628 4.67428,-12.04736 -0.0755,-8.45766 -1.32729,-16.86367 -2.64349,-25.20373 -0.6254,-2.62016 -0.55867,-6.18368 -3.35895,-7.5574 -0.98519,-0.49935 -2.10962,-0.66052 -3.20408,-0.62937 z"
       id="path3377"
       inkscape:connector-curvature="0" />
    <path
       style="color:#000000;clip-rule:nonzero;display:inline;overflow:visible;visibility:visible;opacity:1;isolation:auto;mix-blend-mode:normal;color-interpolation:sRGB;color-interpolation-filters:linearRGB;solid-color:#000000;solid-opacity:1;fill:#d40000;fill-opacity:1;fill-rule:evenodd;stroke:none;stroke-width:2.20000005;stroke-linecap:round;stroke-linejoin:round;stroke-miterlimit:4;stroke-dasharray:none;stroke-dashoffset:0;stroke-opacity:1;color-rendering:auto;image-rendering:auto;shape-rendering:auto;text-rendering:auto;enable-background:accumulate"
       d="m 79.67784,256.56383 c -1.973347,0.35355 -3.110705,2.36997 -4.368614,3.74812 -5.186043,7.16267 -8.678296,15.40148 -11.720306,23.65835 -3.15284,9.07737 -4.869862,18.68192 -4.652748,28.30482 -0.123644,10.00681 0.265363,20.01573 1.373571,29.96453 1.179317,11.18034 2.14119,22.43013 4.495475,33.43932 0.976548,4.70334 3.012854,9.29466 6.659069,12.53784 1.940511,1.76939 3.766765,3.88126 6.085228,5.10629 0.721702,-0.86886 0.166819,-2.32735 0.298574,-3.38779 -0.714753,-14.49718 -2.778357,-28.91218 -3.036541,-43.42845 0.16235,-2.40224 -0.144304,-5.24185 1.602039,-7.16429 0.658847,-0.59685 2.140682,-1.18761 2.435612,0.0656 1.357221,5.04695 1.198434,10.34845 1.31744,15.54145 -0.07652,8.3799 -0.489251,16.92473 1.521148,25.13149 0.574753,2.17384 2.371917,4.23268 4.6177,4.67146 2.11081,-0.28772 2.534885,-2.96099 2.864727,-4.67837 1.242384,-10.21858 0.534025,-20.57976 1.808633,-30.79578 1.220262,-11.46835 3.686287,-22.74166 6.486439,-33.91829 1.260875,-5.87539 3.122694,-11.68378 3.529834,-17.70411 -0.0336,-3.6678 -2.450506,-6.73367 -3.955065,-9.92383 -4.852053,-9.07262 -11.218792,-17.34594 -15.071122,-26.93392 -0.680445,-1.28602 -0.01913,-3.27456 -1.40869,-4.12693 -0.280088,-0.1072 -0.586117,-0.11645 -0.882403,-0.10752 z"
       id="path3379"
       inkscape:connector-curvature="0" />
    <path
       style="color:#000000;clip-rule:nonzero;display:inline;overflow:visible;visibility:visible;opacity:1;isolation:auto;mix-blend-mode:normal;color-interpolation:sRGB;color-interpolation-filters:linearRGB;solid-color:#000000;solid-opacity:1;fill:#d40000;fill-opacity:1;fill-rule:evenodd;stroke:none;stroke-width:2.20000005;stroke-linecap:round;stroke-linejoin:round;stroke-miterlimit:4;stroke-dasharray:none;stroke-dashoffset:0;stroke-opacity:1;color-rendering:auto;image-rendering:auto;shape-rendering:auto;text-rendering:auto;enable-background:accumulate"
       d="m 161.11459,486.45918 c -2.42083,0.75436 -1.34377,4.29821 -1.72346,6.19698 -0.28724,6.75867 -4.28686,12.60497 -9.58685,16.53232 -7.97369,6.8446 -18.9721,8.02405 -27.81831,13.42213 -10.4397,5.82662 -20.72928,12.43974 -28.900817,21.25957 -3.239701,3.81199 -4.552558,9.5649 -2.813433,14.28419 1.854776,2.75891 6.423448,2.10313 7.544577,-1.03087 1.272966,-3.78 2.262643,-7.74093 4.643343,-11.04756 2.69835,-3.89905 5.38653,-8.48946 9.90226,-10.44877 3.53364,1.10734 6.31544,4.39867 10.25147,4.66111 1.87987,-0.2332 4.69541,0.2769 4.37404,2.77298 0.21249,4.96422 -1.97527,10.33572 0.11641,15.08225 1.74379,2.26087 4.60854,4.1634 7.46171,4.34938 3.59685,-1.26275 2.8004,-6.12424 3.07382,-9.11303 0.30744,-3.20179 -0.49411,-7.82203 2.81544,-9.69218 2.82763,-1.02622 7.53313,-0.0472 7.38871,3.72451 0.32,5.23402 4.29969,9.42958 9.14071,11.0026 4.20873,1.24724 9.22593,2.1134 13.3056,0.0799 1.32724,-1.51708 1.91339,-3.65453 3.75453,-4.80908 6.88072,-6.52498 15.98044,-10.21324 22.65248,-16.93485 3.41671,-4.51756 2.1149,-10.66251 2.47265,-15.93448 0.15638,-7.23593 -1.76153,-14.99022 -7.59938,-19.75133 -6.0548,-5.19827 -13.88643,-7.68463 -20.97046,-11.13962 -3.11271,-1.20773 -6.1842,-2.87977 -9.48504,-3.46616 z"
       id="path3381"
       inkscape:connector-curvature="0" />
    <path
       style="color:#000000;clip-rule:nonzero;display:inline;overflow:visible;visibility:visible;opacity:1;isolation:auto;mix-blend-mode:normal;color-interpolation:sRGB;color-interpolation-filters:linearRGB;solid-color:#000000;solid-opacity:1;fill:#d40000;fill-opacity:1;fill-rule:evenodd;stroke:none;stroke-width:2.20000005;stroke-linecap:round;stroke-linejoin:round;stroke-miterlimit:4;stroke-dasharray:none;stroke-dashoffset:0;stroke-opacity:1;color-rendering:auto;image-rendering:auto;shape-rendering:auto;text-rendering:auto;enable-background:accumulate"
       d="m 115.64399,542.44313 c -1.50652,0.50235 -2.38512,2.05071 -3.2802,3.27078 -2.09438,3.56401 -4.03504,7.33302 -4.8999,11.40416 -0.32038,1.30934 -0.0388,2.73696 0.99435,3.66106 0.85042,1.0488 2.34059,2.4111 3.74093,1.45264 1.81822,-1.28725 2.28953,-3.68534 2.82946,-5.7132 0.83113,-4.30359 1.26303,-8.70313 1.23757,-13.08632 -0.0196,-0.40468 -0.063,-1.031 -0.62221,-0.98912 z"
       id="path3383"
       inkscape:connector-curvature="0" />
    <path
       style="color:#000000;clip-rule:nonzero;display:inline;overflow:visible;visibility:visible;opacity:1;isolation:auto;mix-blend-mode:normal;color-interpolation:sRGB;color-interpolation-filters:linearRGB;solid-color:#000000;solid-opacity:1;fill:#d40000;fill-opacity:1;fill-rule:evenodd;stroke:none;stroke-width:2.20000005;stroke-linecap:round;stroke-linejoin:round;stroke-miterlimit:4;stroke-dasharray:none;stroke-dashoffset:0;stroke-opacity:1;color-rendering:auto;image-rendering:auto;shape-rendering:auto;text-rendering:auto;enable-background:accumulate"
       d="M 146.72055,5.1900103 C 109.33881,4.7608976 72.805566,21.768317 47.2738,48.749879 c -6.753856,7.269035 -14.010159,14.29161 -19.414855,22.652476 -0.208509,1.913871 2.894319,1.432028 4.130869,1.726538 17.962445,0.947972 36.017227,-0.13979 53.946983,1.075055 9.89007,1.458225 18.456573,7.659183 24.192463,15.708432 4.57441,5.35146 8.02156,11.80534 13.48997,16.32149 2.18683,1.83159 4.70943,1.85286 7.29958,0.89558 14.08203,-2.55048 28.5629,-2.19017 42.82332,-1.69956 10.84107,0.49651 20.181,7.44211 27.50199,14.90425 11.49778,11.43667 13.02824,30.77907 4.48454,44.30312 -4.94128,7.82108 -14.32165,10.40399 -22.53213,13.26516 -0.97054,0.31779 -3.93354,1.74603 -2.26199,2.87854 3.80374,1.419 8.01584,-0.37998 11.84912,-0.95944 7.8014,-1.83356 15.41393,-4.36288 23.03666,-6.81499 13.74849,11.42612 23.85589,26.32984 33.87071,40.95527 2.38939,4.03516 6.0069,7.64091 7.4903,12.03533 -2.31795,3.19263 -7.05048,2.75452 -10.48132,3.70323 -6.60918,1.40647 -13.66026,1.09281 -19.99096,3.62432 -5.59787,2.8755 -5.03202,10.14229 -5.69394,15.44724 -0.27031,6.96642 -1.38373,14.04145 -0.53862,20.97546 1.46698,4.43466 7.15223,5.16042 11.1758,5.08628 8.37677,0.34725 16.73805,-2.18956 23.79876,-6.62222 7.7209,-6.02397 13.33228,-14.27222 19.53953,-21.74769 8.68477,-11.50261 17.7462,-22.89572 24.50667,-35.67416 5.76239,-13.01053 7.53038,-27.54836 7.05788,-41.67258 -0.55021,-4.38105 -0.55276,-9.92461 -4.34803,-12.89242 -1.82682,-0.43881 -4.06065,-0.83624 -4.60092,-3.0206 -1.17594,-3.29535 3.20982,-4.37789 5.57971,-4.45816 6.37286,-1.02879 13.33292,0.10657 19.27359,-2.7954 4.95372,-2.54831 7.16856,-8.1414 7.02865,-13.47824 0.12348,-14.65073 -4.16857,-29.13068 -10.52078,-42.230096 -5.49423,-10.455225 -12.99125,-21.355554 -24.60669,-25.453081 -6.20616,-2.255595 -13.17095,-0.09888 -17.70134,4.521023 -2.26327,1.591213 -5.26909,4.932136 -8.27753,3.330347 -2.48898,-2.510759 -1.66539,-6.71359 -4.12249,-9.350815 C 255.48995,52.03685 244.4403,42.710194 233.01116,34.254919 208.07482,16.253501 177.8125,4.3189953 146.72055,5.1900103 Z"
       id="path3385"
       inkscape:connector-curvature="0" />
    <path
       style="color:#000000;clip-rule:nonzero;display:inline;overflow:visible;visibility:visible;opacity:1;isolation:auto;mix-blend-mode:normal;color-interpolation:sRGB;color-interpolation-filters:linearRGB;solid-color:#000000;solid-opacity:1;fill:#d40000;fill-opacity:1;fill-rule:evenodd;stroke:none;stroke-width:2.20000005;stroke-linecap:round;stroke-linejoin:round;stroke-miterlimit:4;stroke-dasharray:none;stroke-dashoffset:0;stroke-opacity:1;color-rendering:auto;image-rendering:auto;shape-rendering:auto;text-rendering:auto;enable-background:accumulate"
       d="m 79.942512,233.74327 c -0.585882,0.54001 0.638269,1.28032 0.884212,1.80981 3.530991,4.22181 7.3022,8.34141 12.064287,11.20281 6.633026,4.40363 13.997489,7.7467 21.822849,9.33355 8.06218,1.74506 16.26082,3.00088 24.50101,3.44801 6.89745,0.0677 13.84212,0.44223 20.71021,-0.34273 5.39775,-1.02804 10.38098,-3.52575 15.71336,-4.81864 4.65221,-1.41292 9.99485,-1.88264 14.31304,0.75401 5.97415,3.50782 10.29507,9.31837 16.42682,12.59287 1.46438,0.89372 3.69109,0.13501 3.80089,-1.71893 0.49258,-8.35165 -2.41657,-16.39784 -4.45453,-24.37476 -0.43225,-0.93792 -0.32744,-2.39545 -1.15704,-3.04783 -9.64866,0.17717 -19.30865,0.57939 -28.92457,1.42007 -6.98534,0.82898 -14.16449,1.4906 -20.63863,4.45663 -1.77957,0.71858 -4.47026,1.45089 -5.66078,-0.62321 -2.20687,-1.86095 -5.31905,-2.03817 -8.02824,-2.6747 -17.21005,-2.78693 -34.7758,-2.57384 -51.934954,-5.6996 -3.151086,-0.52518 -6.266328,-1.31233 -9.437934,-1.71736 z"
       id="path3387"
       inkscape:connector-curvature="0" />
    <path
       style="color:#000000;clip-rule:nonzero;display:inline;overflow:visible;visibility:visible;opacity:1;isolation:auto;mix-blend-mode:normal;color-interpolation:sRGB;color-interpolation-filters:linearRGB;solid-color:#000000;solid-opacity:1;fill:#d40000;fill-opacity:1;fill-rule:evenodd;stroke:none;stroke-width:2.20000005;stroke-linecap:round;stroke-linejoin:round;stroke-miterlimit:4;stroke-dasharray:none;stroke-dashoffset:0;stroke-opacity:1;color-rendering:auto;image-rendering:auto;shape-rendering:auto;text-rendering:auto;enable-background:accumulate"
       d="m 18.042061,134.97323 c -1.558372,0.0817 -1.052888,2.0963 -0.655021,3.02109 2.317474,5.46256 5.967719,10.25289 9.647675,14.86263 3.514877,4.44951 8.29425,7.7328 13.555407,9.78265 11.092713,4.34373 22.908177,6.35887 34.534209,8.72363 17.843161,3.33289 35.717659,6.53463 53.659219,9.29018 1.33115,-0.036 2.97172,0.75479 4.18013,-0.005 0.32751,-1.10081 -1.36558,-1.51564 -2.03806,-2.01981 -9.01832,-4.05197 -17.80706,-8.86381 -25.25918,-15.42403 -4.34445,-3.85449 -8.78914,-8.3956 -14.854,-9.19519 -7.456631,-1.05565 -15.028734,-0.62573 -22.534438,-0.99487 -9.934964,-0.1467 -19.924322,-2.05626 -28.865993,-6.50826 -6.290295,-2.88517 -11.937536,-6.90425 -17.902481,-10.3588 -1.090025,-0.52725 -2.229482,-1.14739 -3.467467,-1.17441 z"
       id="path3389"
       inkscape:connector-curvature="0" />
    <path
       style="color:#000000;clip-rule:nonzero;display:inline;overflow:visible;visibility:visible;opacity:1;isolation:auto;mix-blend-mode:normal;color-interpolation:sRGB;color-interpolation-filters:linearRGB;solid-color:#000000;solid-opacity:1;fill:#ffffff;fill-opacity:1;fill-rule:evenodd;stroke:none;stroke-width:2.20000005;stroke-linecap:round;stroke-linejoin:round;stroke-miterlimit:4;stroke-dasharray:none;stroke-dashoffset:0;stroke-opacity:1;color-rendering:auto;image-rendering:auto;shape-rendering:auto;text-rendering:auto;enable-background:accumulate"
       d="m 219.97988,188.62083 c -2.19589,0.55079 -1.34947,3.50334 -1.1063,5.10393 2.16629,9.58201 3.04976,19.40174 5.11021,28.99902 0.48314,2.68318 3.50845,3.98833 5.94866,3.07269 4.74245,-1.00961 9.66648,-1.75652 14.13016,-3.67816 1.45898,-1.53845 -0.54516,-3.65016 -1.0481,-5.20343 -5.10343,-9.33519 -10.93042,-18.50013 -18.6394,-25.91264 -1.26616,-1.01891 -2.66583,-2.37308 -4.39523,-2.38141 z"
       id="path3391"
       inkscape:connector-curvature="0" />
    <path
       style="color:#000000;clip-rule:nonzero;display:inline;overflow:visible;visibility:visible;opacity:1;isolation:auto;mix-blend-mode:normal;color-interpolation:sRGB;color-interpolation-filters:linearRGB;solid-color:#000000;solid-opacity:1;fill:#ffffff;fill-opacity:1;fill-rule:evenodd;stroke:none;stroke-width:2.20000005;stroke-linecap:round;stroke-linejoin:round;stroke-miterlimit:4;stroke-dasharray:none;stroke-dashoffset:0;stroke-opacity:1;color-rendering:auto;image-rendering:auto;shape-rendering:auto;text-rendering:auto;enable-background:accumulate"
       d="m 211.69026,181.42635 c -5.81014,1.22154 -11.31589,3.61142 -17.05564,5.14479 -3.96053,1.28259 -8.07876,2.27571 -11.92036,3.81796 1.99516,4.49923 4.99218,8.62482 7.47,12.91202 8.94404,14.44788 17.75617,29.1911 23.05291,45.42987 0.12876,0.47177 0.75253,2.34959 1.12817,1.11542 1.4726,-9.15234 2.99238,-18.43721 1.96423,-27.72775 -0.54238,-10.04084 -2.99238,-19.86358 -3.71715,-29.8699 -0.27118,-3.44068 0.30557,-6.91521 0.23158,-10.33762 -0.18961,-0.43233 -0.75311,-0.45883 -1.15374,-0.48479 z"
       id="path3393"
       inkscape:connector-curvature="0" />
    <path
       style="color:#000000;clip-rule:nonzero;display:inline;overflow:visible;visibility:visible;opacity:1;isolation:auto;mix-blend-mode:normal;color-interpolation:sRGB;color-interpolation-filters:linearRGB;solid-color:#000000;solid-opacity:1;fill:#ffffff;fill-opacity:1;fill-rule:evenodd;stroke:none;stroke-width:2.20000005;stroke-linecap:round;stroke-linejoin:round;stroke-miterlimit:4;stroke-dasharray:none;stroke-dashoffset:0;stroke-opacity:1;color-rendering:auto;image-rendering:auto;shape-rendering:auto;text-rendering:auto;enable-background:accumulate"
       d="m 174.35418,196.01061 c -2.74045,0.65527 -3.53009,3.99534 -4.86328,6.10631 -3.8111,8.02774 -6.85184,16.67524 -7.34165,25.60965 -0.21074,2.1759 0.7796,4.69359 3.1522,5.12765 4.92142,1.1333 10.07132,0.39384 15.07962,0.44609 5.311,-0.33703 11.15232,-0.0388 15.87811,-2.8554 1.26236,-1.84366 -0.29425,-4.24943 -0.83915,-6.11677 -4.41412,-9.7197 -10.3206,-18.90786 -17.90225,-26.46439 -0.89554,-0.79956 -1.83404,-1.95624 -3.1636,-1.85314 z"
       id="path3395"
       inkscape:connector-curvature="0" />
    <path
       style="color:#000000;clip-rule:nonzero;display:inline;overflow:visible;visibility:visible;opacity:1;isolation:auto;mix-blend-mode:normal;color-interpolation:sRGB;color-interpolation-filters:linearRGB;solid-color:#000000;solid-opacity:1;fill:#ffffff;fill-opacity:1;fill-rule:evenodd;stroke:none;stroke-width:2.20000005;stroke-linecap:round;stroke-linejoin:round;stroke-miterlimit:4;stroke-dasharray:none;stroke-dashoffset:0;stroke-opacity:1;color-rendering:auto;image-rendering:auto;shape-rendering:auto;text-rendering:auto;enable-background:accumulate"
       d="m 145.50862,191.92091 c -1.82093,0.28007 -4.41131,-0.49494 -5.72126,1.13002 -0.16553,3.11694 1.2499,6.16701 1.91964,9.18667 3.07153,9.8792 6.27674,19.80476 10.94029,29.06389 0.33659,0.83769 1.5889,2.51807 2.36049,1.11607 3.39892,-6.29916 4.58785,-13.50705 6.53948,-20.33063 1.14754,-5.44198 3.17716,-10.80971 3.33845,-16.40277 -0.37517,-2.61889 -3.7984,-2.67163 -5.81961,-3.14383 -4.48747,-0.62682 -9.03542,-0.6368 -13.55748,-0.61942 z"
       id="path3397"
       inkscape:connector-curvature="0" />
    <path
       style="color:#000000;clip-rule:nonzero;display:inline;overflow:visible;visibility:visible;opacity:1;isolation:auto;mix-blend-mode:normal;color-interpolation:sRGB;color-interpolation-filters:linearRGB;solid-color:#000000;solid-opacity:1;fill:#ffffff;fill-opacity:1;fill-rule:evenodd;stroke:none;stroke-width:2.20000005;stroke-linecap:round;stroke-linejoin:round;stroke-miterlimit:4;stroke-dasharray:none;stroke-dashoffset:0;stroke-opacity:1;color-rendering:auto;image-rendering:auto;shape-rendering:auto;text-rendering:auto;enable-background:accumulate"
       d="m 129.13403,187.33902 c -5.14942,0.30828 -9.74742,4.00013 -11.65746,8.72399 -4.33673,9.30803 -7.74293,19.05476 -10.39862,28.96956 -0.39564,1.81897 -0.95248,3.78019 -0.7049,5.5906 5.68141,1.69224 11.71443,1.15229 17.56507,1.22229 7.10537,-0.2601 14.23882,-0.50802 21.29275,-1.42797 1.35597,-0.1372 0.21816,-1.77208 0.12874,-2.49924 -3.99062,-11.66756 -8.88324,-23.05128 -12.23478,-34.91932 -0.72495,-1.64752 0.20714,-3.90644 -1.45358,-5.09959 -0.66327,-0.67549 -1.67971,-0.54852 -2.53722,-0.56032 z"
       id="path3399"
       inkscape:connector-curvature="0" />
    <path
       style="color:#000000;clip-rule:nonzero;display:inline;overflow:visible;visibility:visible;opacity:1;isolation:auto;mix-blend-mode:normal;color-interpolation:sRGB;color-interpolation-filters:linearRGB;solid-color:#000000;solid-opacity:1;fill:#ffffff;fill-opacity:1;fill-rule:evenodd;stroke:none;stroke-width:2.20000005;stroke-linecap:round;stroke-linejoin:round;stroke-miterlimit:4;stroke-dasharray:none;stroke-dashoffset:0;stroke-opacity:1;color-rendering:auto;image-rendering:auto;shape-rendering:auto;text-rendering:auto;enable-background:accumulate"
       d="m 96.485094,182.53833 c -1.541218,-0.10293 -3.688654,0.21534 -3.935551,2.0933 -1.025812,8.07904 1.129472,16.128 3.18179,23.87918 1.292793,4.04496 2.28702,8.35323 4.722847,11.89344 0.8768,1.34512 2.65444,0.22435 2.91998,-1.01163 0.82505,-2.89556 1.10447,-5.9168 2.20613,-8.75092 2.51297,-8.0999 6.51238,-15.66089 8.8355,-23.82009 0.69774,-1.38466 -0.47409,-1.73436 -1.58505,-1.88107 -5.3784,-1.13224 -10.84661,-2.16151 -16.345646,-2.40221 z"
       id="path3401"
       inkscape:connector-curvature="0" />
    <path
       style="color:#000000;clip-rule:nonzero;display:inline;overflow:visible;visibility:visible;opacity:1;isolation:auto;mix-blend-mode:normal;color-interpolation:sRGB;color-interpolation-filters:linearRGB;solid-color:#000000;solid-opacity:1;fill:#ffffff;fill-opacity:1;fill-rule:evenodd;stroke:none;stroke-width:2.20000005;stroke-linecap:round;stroke-linejoin:round;stroke-miterlimit:4;stroke-dasharray:none;stroke-dashoffset:0;stroke-opacity:1;color-rendering:auto;image-rendering:auto;shape-rendering:auto;text-rendering:auto;enable-background:accumulate"
       d="m 89.803684,209.35571 c -2.508344,0.47959 -3.578813,3.30356 -4.3986,5.41678 -1.032294,3.32214 -1.464035,6.99823 -0.591001,10.39842 1.182226,3.58957 5.784942,5.22006 9.087921,3.64207 1.566802,-1.054 0.806715,-3.34909 0.417773,-4.83521 -1.461075,-4.00205 -1.173871,-8.33298 -2.024251,-12.44639 -0.278858,-1.14732 -1.214989,-2.26258 -2.491842,-2.17567 z"
       id="path3403"
       inkscape:connector-curvature="0" />
    <path
       style="color:#000000;clip-rule:nonzero;display:inline;overflow:visible;visibility:visible;opacity:1;isolation:auto;mix-blend-mode:normal;color-interpolation:sRGB;color-interpolation-filters:linearRGB;solid-color:#000000;solid-opacity:1;fill:#ffffff;fill-opacity:1;fill-rule:evenodd;stroke:none;stroke-width:2.20000005;stroke-linecap:round;stroke-linejoin:round;stroke-miterlimit:4;stroke-dasharray:none;stroke-dashoffset:0;stroke-opacity:1;color-rendering:auto;image-rendering:auto;shape-rendering:auto;text-rendering:auto;enable-background:accumulate"
       d="m 69.41123,177.57092 c -2.277882,-0.1576 -4.723999,1.21225 -5.028074,3.62827 -0.558585,6.92975 1.813358,13.64818 3.406353,20.29519 1.499196,5.07576 2.528948,10.33105 4.588551,15.21897 0.795671,1.83993 3.642671,1.69872 4.657342,0.121 3.833024,-4.15311 5.098462,-9.93966 6.148035,-15.32804 0.995751,-6.30415 1.901875,-12.8411 0.599285,-19.16478 -0.571135,-2.79466 -3.653314,-3.6899 -6.108334,-4.00291 -2.733915,-0.39827 -5.494218,-0.79589 -8.263158,-0.7677 z"
       id="path3405"
       inkscape:connector-curvature="0" />
    <path
       style="color:#000000;clip-rule:nonzero;display:inline;overflow:visible;visibility:visible;opacity:1;isolation:auto;mix-blend-mode:normal;color-interpolation:sRGB;color-interpolation-filters:linearRGB;solid-color:#000000;solid-opacity:1;fill:#ffffff;fill-opacity:1;fill-rule:evenodd;stroke:none;stroke-width:2.20000005;stroke-linecap:round;stroke-linejoin:round;stroke-miterlimit:4;stroke-dasharray:none;stroke-dashoffset:0;stroke-opacity:1;color-rendering:auto;image-rendering:auto;shape-rendering:auto;text-rendering:auto;enable-background:accumulate"
       d="m 60.554638,199.7489 c -1.733878,0.0956 -1.945378,2.31681 -2.475564,3.57993 -1.16732,4.61313 -2.273863,9.46737 -1.508323,14.23437 0.577149,3.32703 4.082287,4.73308 6.792182,5.98994 1.532209,0.76004 4.373199,0.66012 4.491636,-1.54142 0.549826,-5.58245 -1.733886,-10.93267 -3.437583,-16.12849 -0.91705,-2.02998 -1.437156,-4.48314 -3.141233,-6.01792 -0.221094,-0.11453 -0.476793,-0.13206 -0.721115,-0.11641 z"
       id="path3407"
       inkscape:connector-curvature="0" />
    <path
       style="color:#000000;clip-rule:nonzero;display:inline;overflow:visible;visibility:visible;opacity:1;isolation:auto;mix-blend-mode:normal;color-interpolation:sRGB;color-interpolation-filters:linearRGB;solid-color:#000000;solid-opacity:1;fill:#ffffff;fill-opacity:1;fill-rule:evenodd;stroke:none;stroke-width:2.20000005;stroke-linecap:round;stroke-linejoin:round;stroke-miterlimit:4;stroke-dasharray:none;stroke-dashoffset:0;stroke-opacity:1;color-rendering:auto;image-rendering:auto;shape-rendering:auto;text-rendering:auto;enable-background:accumulate"
       d="m 28.928188,162.45104 c -0.573388,0.23448 -0.127927,1.07312 -0.231518,1.526 0.671284,11.60405 1.001783,23.24122 2.422895,34.78758 1.482369,12.34454 3.404777,24.65943 6.339184,36.74886 0.885577,3.24811 1.616814,6.6119 3.252415,9.58437 0.290681,0.61944 1.057003,1.24393 1.71573,0.72506 1.169222,-1.5661 1.540256,-3.57488 2.013893,-5.43475 0.533762,-2.21197 0.666565,-4.49407 0.75519,-6.74818 0.743151,-6.15261 2.364357,-12.2118 3.986056,-18.20432 1.722835,-5.96262 3.618716,-11.88257 4.917589,-17.95875 1.266455,-5.97806 2.708218,-12.11524 1.869926,-18.25763 -0.304798,-2.37733 -1.764106,-4.45706 -3.688981,-5.83191 -3.765744,-2.67851 -8.161754,-4.25716 -12.324223,-6.19379 -3.646237,-1.57917 -7.255038,-3.26655 -10.941346,-4.74081 -0.02878,-0.003 -0.05792,-0.004 -0.08681,-0.002 z"
       id="path3409"
       inkscape:connector-curvature="0" />
    <path
       style="color:#000000;clip-rule:nonzero;display:inline;overflow:visible;visibility:visible;opacity:1;isolation:auto;mix-blend-mode:normal;color-interpolation:sRGB;color-interpolation-filters:linearRGB;solid-color:#000000;solid-opacity:1;fill:#ffffff;fill-opacity:1;fill-rule:evenodd;stroke:none;stroke-width:2.20000005;stroke-linecap:round;stroke-linejoin:round;stroke-miterlimit:4;stroke-dasharray:none;stroke-dashoffset:0;stroke-opacity:1;color-rendering:auto;image-rendering:auto;shape-rendering:auto;text-rendering:auto;enable-background:accumulate"
       d="m 23.792835,177.9809 c -0.696468,0.26083 -0.563858,1.25984 -0.705599,1.85883 -0.222225,3.21405 -0.344785,6.47161 0.09842,9.67161 0.04732,0.41852 0.359464,1.36856 0.923096,0.94973 0.791493,-0.98526 0.715141,-2.37755 0.911998,-3.56907 0.219361,-2.88018 0.326592,-5.91715 -0.768712,-8.64327 -0.09211,-0.15785 -0.270401,-0.28334 -0.459205,-0.26783 z"
       id="path3411"
       inkscape:connector-curvature="0" />
    <path
       style="color:#000000;clip-rule:nonzero;display:inline;overflow:visible;visibility:visible;opacity:1;isolation:auto;mix-blend-mode:normal;color-interpolation:sRGB;color-interpolation-filters:linearRGB;solid-color:#000000;solid-opacity:1;fill:#7fff2a;fill-opacity:1;fill-rule:evenodd;stroke:none;stroke-width:2.20000005;stroke-linecap:round;stroke-linejoin:round;stroke-miterlimit:4;stroke-dasharray:none;stroke-dashoffset:0;stroke-opacity:1;color-rendering:auto;image-rendering:auto;shape-rendering:auto;text-rendering:auto;enable-background:accumulate"
       d="m 57.441918,80.438933 c -9.412722,0.05506 -19.239418,0.846755 -27.661134,5.425851 -5.135725,2.834491 -9.557596,6.990726 -12.743443,11.911273 -4.082451,6.320683 -4.555933,14.858143 -0.861355,21.464823 2.912603,5.25721 7.730066,9.13403 12.654203,12.42033 6.765604,4.31557 14.937781,5.27652 22.690395,6.51453 9.852893,1.37522 19.726875,2.72646 29.65808,3.37543 4.216949,0.0186 8.502213,0.29311 12.661481,-0.54269 1.937053,-0.50089 4.204787,-1.66856 4.398368,-3.91148 0.291557,-2.88515 0.57183,-5.78214 1.672712,-8.49924 1.445335,-3.73201 3.174015,-7.56708 6.254185,-10.22147 1.47792,-1.44421 3.98437,-0.57024 5.28285,-2.29806 1.24276,-1.90978 0.82122,-4.39721 0.29003,-6.48206 C 109.34895,102.40786 104.4961,96.238456 98.83003,91.312259 92.177263,85.536804 83.537423,82.645799 74.919945,81.485599 69.131913,80.696531 63.279875,80.4282 57.441918,80.438933 Z m 3.549455,36.981377 c 0.781347,0.14673 1.927991,-0.17928 2.520927,0.46212 -0.393491,1.41671 -1.670964,2.43281 -2.535523,3.58951 -2.572482,2.8249 -5.634,5.80957 -9.587804,6.38015 -2.049834,0.22275 -4.570009,-0.96314 -4.892228,-3.16232 0.227753,-2.04599 2.294125,-3.16534 3.827384,-4.21433 3.191501,-1.91193 6.920701,-3.06324 10.667244,-3.05513 z"
       id="path3413"
       inkscape:connector-curvature="0" />
    <path
       style="color:#000000;clip-rule:nonzero;display:inline;overflow:visible;visibility:visible;opacity:1;isolation:auto;mix-blend-mode:normal;color-interpolation:sRGB;color-interpolation-filters:linearRGB;solid-color:#000000;solid-opacity:1;fill:#7fff2a;fill-opacity:1;fill-rule:evenodd;stroke:none;stroke-width:2.20000005;stroke-linecap:round;stroke-linejoin:round;stroke-miterlimit:4;stroke-dasharray:none;stroke-dashoffset:0;stroke-opacity:1;color-rendering:auto;image-rendering:auto;shape-rendering:auto;text-rendering:auto;enable-background:accumulate"
       d="m 152.94275,117.97834 c -10.60224,0.16623 -21.4036,1.57798 -31.17048,5.90472 -4.17313,1.97503 -8.29801,4.21369 -11.82791,7.21715 -2.48214,2.06738 -3.73747,5.29681 -3.66839,8.48911 -0.16906,4.74057 0.43446,9.63762 2.79364,13.83133 3.61596,6.73921 10.5895,10.8025 17.53424,13.40707 8.40991,2.99796 17.20808,4.91865 26.08395,5.85068 9.01436,0.81604 18.22073,-0.63158 26.60733,-4.00764 6.5052,-2.83884 12.8828,-6.45917 17.67729,-11.7878 2.64778,-3.05184 4.97721,-6.87252 4.74192,-11.06491 0.2438,-3.72954 -1.65619,-7.21123 -3.85564,-10.08196 -4.07982,-5.00662 -9.56647,-8.64198 -15.12715,-11.81015 -7.66595,-4.28242 -16.59485,-5.45508 -25.23732,-5.87714 -1.51637,-0.0579 -3.03403,-0.0819 -4.55148,-0.0705 z m -9.51032,13.81627 c 4.83062,0.24955 9.54505,1.61705 14.37206,2.07668 2.03998,0.40578 4.62856,-0.16411 6.13192,1.58892 1.73248,1.72498 1.26131,5.11939 -1.09864,6.00725 -1.46723,0.36682 -2.99,-0.2413 -4.47428,-0.29851 -4.7532,-0.72118 -9.61949,-0.98715 -14.23596,-2.36611 -2.0417,-0.62075 -4.07335,-2.43574 -3.69629,-4.76632 0.0408,-1.30455 1.19582,-2.28196 2.44943,-2.22307 0.18375,-0.0125 0.36764,-0.017 0.55176,-0.0188 z"
       id="path3415"
       inkscape:connector-curvature="0" />
  </g>
  <g
     inkscape:label="Layer 1"
     inkscape:groupmode="layer"
     id="layer1"
     transform="translate(-178.75807,-126.72208)">
    <path
       style="fill:#000000"
       d="m 327.5349,756.0463 c -6.1441,-10.10319 -4.33775,-22.51609 6.84762,-47.05535 3.77016,-8.2712 6.85481,-15.37967 6.85481,-15.79663 0,-2.21535 -14.75317,-4.01535 -17.62897,-2.15087 -1.8542,1.20211 -7.78132,2.26607 -13.17137,2.36434 -5.39007,0.0983 -18.62022,0.64158 -29.40034,1.20735 l -19.60022,1.02874 -0.86196,-10.18896 c -0.47408,-5.6039 0.54636,-12.82045 2.26768,-16.03674 4.89541,-9.14717 34.44874,-29.51707 48.55407,-33.46628 7.01834,-1.96504 14.59657,-5.6317 16.84053,-8.14818 8.78385,-9.85049 6.63398,-15.46497 -12.92931,-33.76547 -14.19969,-13.2831 -21.48242,-22.97992 -29.32205,-39.04169 -5.73659,-11.75307 -12.03187,-22.37687 -13.98952,-23.60841 -1.95767,-1.23154 -3.55936,-4.34693 -3.55936,-6.9231 0,-3.79553 -0.79653,-3.54675 -4.19947,1.31164 -2.30972,3.29757 -3.43494,7.98799 -2.50048,10.42315 4.97376,12.96134 -12.21771,-3.47708 -19.0995,-18.26288 -6.14724,-13.20761 -11.10802,-69.6449 -7.97343,-90.71086 2.89558,-19.45947 9.53199,-36.62504 17.49449,-45.25073 6.90441,-7.47947 5.8213,-14.23614 -3.32183,-20.72253 -16.32025,-11.57802 -18.01712,-10.43169 -21.99674,14.85999 -1.99679,12.69031 -4.08067,23.52338 -4.63079,24.0735 -3.10551,3.10551 -6.97698,-4.09547 -7.00316,-13.02594 -0.0168,-5.68419 -1.90671,-16.52019 -4.20004,-24.08003 -2.29337,-7.55983 -4.16976,-17.44123 -4.16976,-21.9586 0,-4.51741 -2.52002,-11.41716 -5.60006,-15.33278 -5.80967,-7.38582 -7.27969,-24.89693 -3.00234,-35.76444 1.54899,-3.93548 0.24193,-8.49824 -4.39683,-15.35014 -3.63054,-5.36256 -6.64565,-12.29265 -6.70022,-15.40018 -0.0546,-3.10755 -1.89993,-8.80013 -4.10082,-12.65018 -7.56096,-13.22653 -5.3008,-23.77398 8.4001,-39.20045 6.93008,-7.8029 12.60015,-15.28983 12.60015,-16.63762 0,-1.34779 8.74152,-11.42043 19.4256,-22.38365 21.33088,-21.88816 35.87676,-29.84973 69.41288,-37.99254 25.25452,-6.13199 56.2737,-4.54033 81.95365,4.20523 19.16897,6.52816 56.57821,31.01926 67.85937,44.42614 6.162,7.32313 7.85857,7.83405 22.09401,6.65353 14.41692,-1.19556 16.00759,-0.6906 24.46431,7.76611 14.67426,14.67426 23.48699,35.00188 24.96902,57.59413 1.24686,19.00698 0.9803,20.08324 -6.4149,25.9003 -4.24367,3.33808 -9.43587,6.06924 -11.53823,6.06924 -2.64295,0 -3.82243,3.7512 -3.82243,12.15693 0,11.72182 0.39398,12.27497 11.00835,15.45511 18.25682,5.46988 41.18469,41.34677 44.34567,69.39092 1.32238,11.73211 1.73818,12.19828 10.88017,12.19828 7.4729,0 10.05489,-1.4456 12.07575,-6.7609 1.5666,-4.12045 6.61562,-8.22123 12.92808,-10.50013 8.03804,-2.90181 11.50049,-6.40422 15.46092,-15.63934 6.10071,-14.22588 11.68032,-16.01498 8.73237,-2.80004 -2.53853,11.3797 -2.31741,30.46819 0.54332,46.90053 2.00522,11.51813 1.36292,13.83432 -7.47958,26.97184 -5.32023,7.90444 -10.52387,19.69184 -11.56366,26.19424 -2.71001,16.94748 -8.74204,27.00304 -18.16986,30.2896 -5.77282,2.01241 -8.74842,5.31511 -10.02493,11.12697 -0.9984,4.5458 -7.54723,17.89671 -14.55293,29.66868 -11.32034,19.02208 -12.85173,23.61358 -13.76303,41.26481 -1.24674,24.14884 -2.56726,28.64452 -12.80393,43.59076 -10.35342,15.11669 -10.2652,26.43966 0.3814,48.94464 9.10653,19.24954 10.57593,30.6621 4.58776,35.63186 -2.09798,1.7412 -10.60308,3.74454 -18.90021,4.45188 -20.63949,1.75954 -55.18446,16.46878 -115.88682,49.34459 -18.77175,10.16662 -19.60718,10.37401 -27.98851,6.94814 -6.91347,-2.82587 -8.86652,-2.56939 -13.16491,1.729 -7.55104,7.55104 -15.61124,6.22828 -21.54958,-3.53653 z m 15.90905,-3.31649 c 1.59079,-1.92503 3.79757,-8.34374 4.90398,-14.26379 2.15924,-11.55343 13.39634,-27.05043 17.00429,-23.4505 1.20508,1.2024 0.0523,5.80685 -2.56183,10.23214 -5.81657,9.84668 -6.07647,17.99787 -0.71567,22.44693 3.32182,2.75689 5.04707,1.37101 9.73672,-7.82144 5.49002,-10.76139 18.79687,-22.84375 25.15877,-22.84375 5.62056,0 3.16571,5.36002 -5.3323,11.64286 -4.62006,3.41576 -8.40009,8.59854 -8.40009,11.51729 0,2.91876 0.95581,4.88684 2.12404,4.37348 1.16823,-0.51332 21.64346,-10.63384 45.50051,-22.48999 41.01246,-20.38186 54.37363,-25.27149 79.07689,-28.93886 8.97206,-1.33198 10.50011,-2.59505 10.50011,-8.67915 0,-3.91617 -3.89523,-15.51422 -8.6561,-25.77342 -10.48964,-22.60427 -9.88615,-33.04565 2.96359,-51.27573 7.88892,-11.19209 9.25119,-15.8769 11.09722,-38.1627 1.89397,-22.86442 3.24664,-27.3147 13.52886,-44.51032 19.58054,-32.7457 24.30789,-58.18541 15.21456,-81.8753 -6.18471,-16.11234 -10.94404,-17.52422 -13.18389,-3.91111 -2.69515,16.37995 -10.92488,35.16562 -24.8063,56.62406 -10.90484,16.85717 -15.70081,21.34596 -35.24207,32.98474 -34.84763,20.75529 -42.10979,24.09111 -54.46146,25.01647 -6.30058,0.47202 -15.55065,1.6757 -20.55571,2.67484 -5.90607,1.179 -9.1001,0.72229 -9.1001,-1.30121 0,-1.71482 1.74308,-3.11784 3.87348,-3.11784 3.03403,0 8.98298,-11.52019 6.5156,-12.6175 -0.32394,-0.14392 -8.14905,-2.15249 -17.38915,-4.46322 -16.3867,-4.09787 -20.81376,-8.4815 -10.64802,-10.54349 8.9841,-1.82232 9.24416,-7.11958 0.73125,-14.89491 -9.2657,-8.4629 -10.14815,-10.68148 -4.24866,-10.68148 10.84385,0 6.50854,-12.25932 -6.01972,-17.02257 -8.15916,-3.10213 -8.56503,-9.39307 -0.46944,-7.27602 3.64736,0.9538 9.00079,-0.70385 13.84885,-4.28816 6.80164,-5.02867 10.31801,-5.59064 25.23011,-4.03199 14.67144,1.53346 18.77212,0.91787 26.75629,-4.01663 5.53693,-3.422 10.10187,-8.91079 11.05854,-13.29647 3.2709,-14.99508 3.97005,-16.17475 6.86926,-11.59037 5.02135,7.94002 2.67657,16.15536 -7.04796,24.69361 -11.05876,9.70973 -24.10276,13.03499 -41.37901,10.54856 -13.80923,-1.98741 -23.3761,1.84928 -12.81816,5.14062 l 6.53675,2.03777 -6.97184,1.97032 c -5.021,1.41898 -5.94826,2.60291 -3.31376,4.23113 2.01196,1.24347 4.40336,1.51558 5.3142,0.60472 0.91085,-0.91085 3.33563,-0.26208 5.38836,1.44138 5.05439,4.19479 28.83971,0.48637 30.87349,-4.81356 1.20175,-3.13172 2.46081,-3.33115 5.43696,-0.86115 6.69345,5.55506 4.34898,7.63896 -12.22713,10.8683 -8.85509,1.72513 -19.88022,3.89355 -24.50028,4.81868 -4.62005,0.92516 -6.82507,2.22804 -4.90005,2.89532 1.92503,0.66727 3.50004,2.99825 3.50004,5.17992 0,5.57372 5.01576,4.98963 26.4573,-3.08096 10.29819,-3.87623 19.8983,-6.32188 21.33362,-5.43481 4.78887,2.95967 2.68613,6.88239 -3.69042,6.88463 -3.46503,0.001 -14.07825,3.68194 -23.58492,8.17935 -12.85796,6.08287 -17.09657,9.48863 -16.54973,13.29794 0.49573,3.45316 3.53148,5.40017 9.3219,5.97863 7.06722,0.70599 9.95319,-0.93362 16.30794,-9.26517 4.24664,-5.56764 11.23244,-11.93871 15.52399,-14.15796 9.00867,-4.65856 19.28106,-5.31651 19.28106,-1.23497 0,1.54002 -2.08609,2.80003 -4.63576,2.80003 -5.64263,0 -22.27244,12.32769 -25.98323,19.26134 -1.48164,2.76848 -2.00959,7.6503 -1.17324,10.8485 1.35823,5.19393 2.44814,5.49163 10.20549,2.78737 4.77667,-1.66514 13.97553,-6.59818 20.44192,-10.96229 6.46638,-4.36412 12.54638,-7.93475 13.51104,-7.93475 0.96469,0 6.88828,-3.3977 13.16352,-7.55046 30.80219,-20.38392 55.14822,-80.34517 52.3374,-128.9005 -1.09886,-18.98207 -2.80543,-24.88949 -12.27144,-42.47892 -8.36758,-15.54835 -13.47765,-21.70221 -21.38366,-25.75159 -13.04831,-6.68322 -12.45064,-6.78013 -14.67243,2.37916 -6.17774,25.46744 -39.72518,72.81253 -58.31173,82.29468 -20.2428,10.3271 -42.40791,6.77764 -59.93684,-9.59814 -7.20978,-6.73548 -10.41267,-7.95792 -16.80019,-6.41197 -28.76126,6.96091 -36.28553,7.45816 -54.10818,3.57586 -10.00161,-2.17864 -23.01383,-6.09124 -28.91611,-8.69468 l -10.7314,-4.73355 2.00026,6.43432 c 1.10017,3.53884 7.03094,13.64237 13.1795,22.45228 8.30798,11.90397 10.71239,17.65722 9.36169,22.40026 -11.95858,41.99246 -13.32491,63.23726 -5.90292,91.78322 11.2542,43.2851 34.51034,71.96244 72.97701,89.98854 12.59065,5.90017 24.13462,12.32173 25.65327,14.27013 3.54834,4.55241 9.43041,34.67202 7.668,39.26471 -0.73904,1.92586 -7.57106,7.00216 -15.18227,11.28064 -16.22394,9.11993 -23.2651,18.16665 -32.52047,41.78348 -6.86212,17.51004 -8.14686,26.17085 -5.07111,34.18612 2.04702,5.33448 5.01113,5.64363 8.90712,0.92902 z m -49.27574,-73.50085 c 0.62928,-5.39005 0.79616,-9.80011 0.37089,-9.80011 -2.6316,0 -9.46186,14.27692 -7.9785,16.67706 3.45482,5.59001 6.4704,2.86406 7.60761,-6.87695 z m 21.86884,0 c 0,-7.9334 1.06667,-9.80011 5.60006,-9.80011 3.69993,0 5.60006,1.86671 5.60006,5.50156 0,3.02586 2.43721,6.8059 5.416,8.4001 6.99425,3.74322 16.98426,3.73314 16.98426,-0.0168 0,-1.60364 6.30007,-6.83205 14.00015,-11.61868 13.37299,-8.3131 14.00017,-9.25694 14.00017,-21.06867 0,-17.26758 -3.81314,-22.71554 -21.31718,-30.45668 -8.38359,-3.70761 -15.837,-6.74114 -16.56307,-6.74114 -0.72612,0 -1.32019,3.2073 -1.32019,7.12735 0,9.65461 -10.83034,19.80359 -25.28735,23.69644 -12.60165,3.39328 -40.29867,22.53023 -43.07342,29.7611 -2.8226,7.35557 -1.80404,12.21594 2.56001,12.21594 2.31002,0 4.24535,-2.20502 4.30074,-4.90005 0.0555,-2.69504 3.16829,-8.65423 6.9176,-13.24267 5.39277,-6.59976 7.53603,-7.62342 10.2594,-4.90005 1.8934,1.8934 5.67907,3.44255 8.41261,3.44255 4.06497,0 4.65378,1.58131 3.23336,8.68352 -1.18517,5.92584 -0.49603,9.46908 2.17002,11.15723 6.64751,4.20923 8.10677,2.90587 8.10677,-7.2406 z m 107.7814,-138.56951 c 0.98096,-1.58722 -0.14308,-2.05663 -2.63477,-1.10044 -4.85083,1.86143 -5.73836,3.86841 -1.71071,3.86841 1.44912,0 3.40462,-1.2456 4.34548,-2.76797 z M 254.5587,494.37357 c -2.32362,-25.21243 -1.9417,-29.34705 2.71083,-29.34705 1.37646,0 2.24711,9.13511 1.93476,20.30024 -0.33659,12.03121 0.72202,21.67161 2.59879,23.66693 5.1018,5.42403 6.63343,1.08655 6.63343,-18.78564 0,-10.27712 2.52002,-28.53887 5.60005,-40.58169 3.08004,-12.04284 5.60007,-23.56003 5.60007,-25.59383 0,-2.03378 -4.41004,-10.5918 -9.80011,-19.01783 -5.39006,-8.42602 -9.80011,-16.74556 -9.80011,-18.4879 0,-8.16341 -7.74369,0.91499 -14.6109,17.12925 -8.63115,20.37913 -9.52179,34.85443 -4.76779,77.4888 2.41626,21.66921 4.23931,28.26845 9.10011,32.94169 3.34318,3.21415 6.31251,5.75171 6.5985,5.63898 0.28596,-0.11285 -0.52296,-11.5211 -1.79763,-25.35195 z m 324.22132,-27.22552 c 1.53367,-5.01689 3.55677,-13.7139 4.49582,-19.32671 0.93905,-5.61283 5.57677,-15.06294 10.30605,-21.00024 8.11358,-10.18607 8.4928,-11.73751 6.72134,-27.498 -1.03257,-9.18656 -2.48853,-17.69166 -3.23543,-18.90021 -3.20434,-5.18468 -13.20742,-1.42407 -23.12477,8.69363 -8.50487,8.67665 -12.18271,10.60279 -18.08932,9.47368 -6.88431,-1.31602 -7.41402,-0.71221 -7.41402,8.45086 0,5.42747 3.41602,16.45234 7.59115,24.49969 5.1947,10.01258 7.948,20.23619 8.72158,32.38523 1.02443,16.08789 1.6047,17.49984 6.1848,15.04866 2.77987,-1.48774 6.30912,-6.80971 7.8428,-11.82659 z M 433.38848,395.15946 c 6.36123,-3.40442 36.58062,-42.46293 44.09278,-56.98983 8.9958,-17.39599 10.38627,-55.14517 2.03122,-55.14517 -2.13048,0 -3.87362,-1.89002 -3.87362,-4.20006 0,-3.10794 3.25955,-4.20004 12.5356,-4.20004 17.77483,0 22.54183,-7.54536 18.51819,-29.31127 -7.36807,-39.85753 -33.93913,-65.8045 -50.46448,-49.27916 -6.10745,6.10746 -11.38965,5.62602 -11.38965,-1.03811 0,-5.63974 -18.98358,-23.96396 -38.90623,-37.5549 -58.44937,-39.87335 -132.21621,-32.00912 -180.57206,19.25064 -10.18845,10.80028 -18.52443,20.65249 -18.52443,21.89376 0,1.24128 13.54516,1.7664 30.10034,1.16692 35.02592,-1.26833 42.16113,1.59758 57.24081,22.99128 7.74217,10.98391 9.73509,12.28903 16.04995,10.51076 3.9656,-1.11674 16.87005,-2.03042 28.67659,-2.03042 19.37817,0 22.64676,0.82711 33.60037,8.50231 15.24388,10.68141 21.05949,25.74923 16.48914,42.72218 -3.15811,11.72832 -9.96935,17.83536 -23.95539,21.47862 -4.63363,1.20705 -6.72694,2.80037 -4.66858,3.55347 2.05231,0.75091 10.6505,-0.811 19.10705,-3.47093 l 15.37559,-4.83621 8.48331,8.02577 c 4.66583,4.41416 13.07786,14.85369 18.69336,23.19895 5.61552,8.34528 11.42547,16.78992 12.91103,18.76593 3.91573,5.20848 1.42804,6.51937 -16.71869,8.8098 -17.77972,2.24414 -16.94867,1.07283 -18.61102,26.23184 -0.90553,13.70499 -0.49528,14.82631 6.0284,16.4769 7.45184,1.88543 17.72975,-0.16016 27.75042,-5.52303 z m -44.56623,-5.03378 c -0.009,-2.69503 -1.25245,-9.35222 -2.76419,-14.79372 l -2.74857,-9.89366 -20.33607,0.95013 c -11.18484,0.5226 -23.25306,2.39649 -26.81825,4.16421 -4.66928,2.31518 -7.01857,2.35681 -8.4001,0.14896 -1.05485,-1.68585 -12.62803,-3.74997 -25.71818,-4.58696 -13.09015,-0.83697 -28.21032,-2.40579 -33.60038,-3.4862 l -9.80011,-1.96442 5.60005,6.38723 c 3.08004,3.51299 11.05932,8.82937 17.73172,11.81424 14.56147,6.51393 50.20106,9.76256 61.23762,5.58192 18.30439,-6.93372 22.66634,-6.65467 32.25085,2.06314 10.63017,9.66899 13.38728,10.41472 13.36561,3.61513 z m -165.193,-28.70033 c 0.0433,-3.85004 2.58278,-14.98742 5.64293,-24.74973 3.06018,-9.76235 5.53423,-21.73249 5.49794,-26.60031 -0.0587,-7.87215 -1.56233,-9.50748 -13.60059,-14.79171 l -13.53462,-5.94101 1.07507,19.94118 c 1.47348,27.33114 9.47342,67.60689 12.48515,62.85646 1.29532,-2.04316 2.39066,-6.86484 2.43412,-10.71488 z m 169.29111,-27.74653 c -1.88955,-10.05502 -2.73234,-20.11437 -1.87289,-22.35408 1.08619,-2.83057 0.2226,-3.55803 -2.83204,-2.38583 -2.4171,0.92755 -9.39999,3.18605 -15.51755,5.0189 l -11.12285,3.33248 12.16983,19.73885 c 6.6934,10.85637 13.71999,24.25182 15.61464,29.76763 l 3.44482,10.02876 1.77578,-12.43242 c 0.97667,-6.83785 0.22988,-20.65929 -1.65974,-30.71429 z m -54.45055,10.94634 c 1.73454,-6.93009 3.81762,-15.29871 4.62907,-18.59692 1.32262,-5.37594 0.14308,-6.10275 -11.39322,-7.02027 -7.07772,-0.56291 -12.86859,-0.11035 -12.86859,1.00544 0,6.4851 12.66002,41.0686 14.39326,39.31824 1.14718,-1.15849 3.50495,-7.77642 5.23948,-14.70649 z M 374.86,356.92301 c 2.99949,-2.99948 -15.25205,-31.90743 -21.41478,-33.91811 -3.39406,-1.10732 -12.20789,21.45564 -12.20789,31.25167 0,5.22357 1.60963,5.81693 15.38884,5.67261 8.46386,-0.0888 16.66906,-1.44141 18.23383,-3.00617 z m -50.42286,-0.24724 c 0,-0.39741 -3.10059,-8.96002 -6.89018,-19.02807 -3.78959,-10.06801 -6.71423,-19.23188 -6.49918,-20.36412 1.00211,-5.27642 -9.14137,-3.06251 -13.0083,2.83917 -3.96193,6.04667 -12.69941,31.0769 -12.77248,36.58928 -0.0168,1.25769 8.78979,1.92659 19.56992,1.48647 10.78012,-0.4401 19.60022,-1.12533 19.60022,-1.52273 z m -51.50101,-5.27947 c -0.9348,-2.43596 -1.69959,-6.84602 -1.69959,-9.80011 0,-7.69191 -5.1757,-6.6368 -7.21034,1.46991 -2.02921,8.08501 0.26965,12.75927 6.27516,12.75927 2.80198,0 3.73348,-1.56583 2.63477,-4.42907 z m 150.02296,-2.95481 c 1.05648,-0.6189 -3.24313,-8.60873 -9.55472,-17.7552 -10.65027,-15.43392 -18.10643,-19.83674 -15.11565,-8.92566 0.70319,2.56541 2.10374,10.72997 3.11234,18.14345 1.82668,13.427 1.86815,13.47169 10.73547,11.57088 4.89593,-1.04951 9.76611,-2.41458 10.82256,-3.03347 z m -177.96574,-9.23047 c -4.53536,-15.36023 -6.68626,-16.40982 -8.9458,-4.36539 -1.40536,7.49118 -0.86943,11.07703 1.91948,12.84338 8.45658,5.35598 10.41371,2.99447 7.02632,-8.47799 z m 37.44331,4.24632 c 0,-2.18234 2.5517,-9.92075 5.67044,-17.19647 3.11872,-7.27571 5.32375,-13.50193 4.90005,-13.83596 -0.4237,-0.33408 -5.49543,-1.33655 -11.2705,-2.22771 -9.69004,-1.49528 -10.50011,-1.09691 -10.50011,5.16356 0,9.52929 6.3118,32.06451 8.98082,32.06451 1.22062,0 2.2193,-1.78555 2.2193,-3.96793 z m -22.67418,-7.65001 c 1.69069,-4.84988 3.07396,-13.53211 3.07396,-19.29391 0,-9.88788 -0.55012,-10.54016 -9.80011,-11.62004 -12.49761,-1.45904 -12.64898,0.6767 -2.56814,36.23182 1.76542,6.22659 6.14302,3.72188 9.29429,-5.31787 z M 203.16589,306.1248 c -0.7043,-2.69503 -1.28054,-0.49 -1.28054,4.90006 0,5.39005 0.57624,7.59509 1.28054,4.90005 0.70427,-2.69503 0.70427,-7.10507 0,-9.80011 z m 100.27102,-3.29916 c -6.16007,-2.75201 -15.42844,-8.96308 -20.59637,-13.8024 -8.79434,-8.23514 -10.73104,-8.79874 -30.23558,-8.79874 -20.88978,0 -31.02218,-3.11809 -49.26919,-15.16188 -9.87874,-6.52039 -9.786,-2.53941 0.2618,11.24173 9.92539,13.6132 17.32386,16.02884 84.4391,27.56979 27.87765,4.79377 28.39821,4.75834 15.40018,-1.0485 z m 49.61359,-5.92417 c 5.72725,-1.59061 14.23233,-6.10564 18.90022,-10.03338 14.26081,-11.99968 10.18223,-24.76981 -11.66427,-36.52113 -14.67138,-7.8918 -46.25319,-6.97046 -62.34257,1.81874 -10.77913,5.88835 -12.70718,8.23671 -12.70718,15.47717 0,15.65174 9.98611,24.40296 33.60037,29.44525 14.4533,3.0862 22.5889,3.04182 34.21343,-0.18677 z m -25.11331,-29.90264 c -5.89984,-0.73215 -9.10012,-2.66705 -9.10012,-5.50194 0,-3.404 1.93834,-3.98499 8.75011,-2.62263 4.81255,0.96252 10.48261,1.75002 12.60014,1.75002 2.11752,0 3.85004,1.89002 3.85004,4.20006 0,2.31002 -1.57501,3.99838 -3.50003,3.75192 -1.92503,-0.2464 -7.59509,-0.95629 -12.60014,-1.57743 z m -51.10059,-4.01504 c 0,-7.71158 6.12423,-19.1597 10.24955,-19.1597 6.55042,0 4.05363,-10.66014 -4.87984,-20.83481 -9.89125,-11.26554 -22.24929,-15.52757 -45.08788,-15.54998 -19.00728,-0.0195 -28.99581,3.37821 -37.76863,12.84423 -9.64305,10.40503 -8.78386,23.93293 2.10174,33.0926 9.6783,8.14374 13.21565,9.2891 38.98465,12.62274 27.4031,3.54503 36.40041,2.79977 36.40041,-3.01508 z m -51.71377,-10.61913 c -1.9095,-3.08964 7.13004,-8.54057 14.16324,-8.54057 4.47414,0 4.45628,0.3998 -0.24976,5.60007 -5.43984,6.01097 -11.25602,7.24017 -13.91336,2.9405 z"
       id="path3347"
       inkscape:connector-curvature="0" />
  </g>
</svg>
